<?xml version="1.0" encoding="UTF-8"?>
<svg xmlns="http://www.w3.org/2000/svg" xmlns:xlink="http://www.w3.org/1999/xlink" viewBox="0 0 100 100" width="100px" height="100px">
<g id="surface65825278">
<path style=" stroke:none;fill-rule:nonzero;fill:rgb(100%,100%,100%);fill-opacity:1;" d="M 50 4 C 24.617188 4 4 24.617188 4 50 C 4 75.382812 24.617188 96 50 96 C 75.382812 96 96 75.382812 96 50 C 96 24.617188 75.382812 4 50 4 Z M 50 8 C 73.21875 8 92 26.78125 92 50 C 92 73.21875 73.21875 92 50 92 C 26.78125 92 8 73.21875 8 50 C 8 26.78125 26.78125 8 50 8 Z M 61.386719 28.117188 C 54.1875 28.117188 48.304688 33.996094 48.304688 41.195312 C 48.304688 41.246094 48.320312 41.292969 48.320312 41.34375 C 40.691406 40.328125 33.945312 36.5625 29.308594 30.878906 C 28.894531 30.371094 28.257812 30.097656 27.601562 30.148438 C 26.949219 30.203125 26.363281 30.570312 26.03125 31.136719 C 24.90625 33.070312 24.261719 35.328125 24.261719 37.714844 C 24.261719 39.839844 24.855469 41.8125 25.757812 43.59375 C 24.835938 43.789062 24.171875 44.601562 24.171875 45.546875 L 24.171875 45.6875 C 24.171875 49.554688 25.980469 52.90625 28.664062 55.304688 C 28.113281 55.832031 27.914062 56.628906 28.144531 57.355469 C 29.261719 60.828125 31.863281 63.550781 35.125 65.082031 C 32.515625 66.300781 29.722656 67.175781 26.640625 67.175781 C 25.820312 67.175781 25.019531 67.128906 24.238281 67.035156 C 23.3125 66.921875 22.429688 67.46875 22.113281 68.347656 C 21.800781 69.226562 22.132812 70.203125 22.921875 70.707031 C 28.128906 74.050781 34.332031 76 40.980469 76 C 51.722656 76 60.210938 71.488281 65.886719 65.050781 C 71.5625 58.613281 74.507812 50.304688 74.507812 42.480469 C 74.507812 42.246094 74.496094 42.019531 74.492188 41.789062 C 76.441406 40.226562 78.273438 38.5 79.660156 36.421875 C 80.128906 35.71875 80.105469 34.796875 79.601562 34.117188 C 79.097656 33.4375 78.21875 33.148438 77.410156 33.398438 C 77.734375 32.769531 78.191406 32.222656 78.410156 31.539062 C 78.664062 30.75 78.402344 29.882812 77.753906 29.367188 C 77.105469 28.847656 76.203125 28.785156 75.488281 29.207031 C 73.738281 30.242188 71.773438 30.925781 69.738281 31.402344 C 67.453125 29.453125 64.609375 28.117188 61.386719 28.117188 Z M 61.386719 32.117188 C 64.011719 32.117188 66.355469 33.214844 68.011719 34.980469 C 68.480469 35.484375 69.179688 35.710938 69.855469 35.578125 C 70.160156 35.519531 70.402344 35.324219 70.703125 35.253906 C 70.664062 35.277344 70.644531 35.316406 70.605469 35.339844 C 69.832031 35.804688 69.464844 36.734375 69.710938 37.601562 C 69.960938 38.472656 70.761719 39.066406 71.664062 39.054688 C 71.527344 39.160156 71.445312 39.324219 71.304688 39.425781 C 70.757812 39.820312 70.449219 40.460938 70.476562 41.132812 C 70.496094 41.582031 70.507812 42.03125 70.507812 42.480469 C 70.507812 49.289062 67.878906 56.742188 62.886719 62.40625 C 57.894531 68.070312 50.617188 72 40.980469 72 C 37.675781 72 34.5625 71.339844 31.601562 70.335938 C 35.285156 69.554688 38.773438 68.25 41.632812 66.007812 C 42.296875 65.484375 42.558594 64.601562 42.289062 63.800781 C 42.023438 63 41.28125 62.457031 40.4375 62.4375 C 37.605469 62.386719 35.425781 60.785156 33.796875 58.71875 C 34.394531 58.640625 35.015625 58.636719 35.585938 58.480469 C 36.480469 58.234375 37.089844 57.40625 37.054688 56.480469 C 37.023438 55.554688 36.359375 54.769531 35.449219 54.589844 C 32.144531 53.921875 29.570312 51.445312 28.625 48.242188 C 29.476562 48.445312 30.222656 48.90625 31.125 48.933594 C 32.015625 48.960938 32.816406 48.394531 33.089844 47.546875 C 33.363281 46.695312 33.042969 45.769531 32.300781 45.273438 C 29.859375 43.640625 28.261719 40.878906 28.261719 37.714844 C 28.261719 37.0625 28.613281 36.542969 28.742188 35.929688 C 34.421875 41.554688 41.984375 45.285156 50.496094 45.714844 C 51.125 45.746094 51.730469 45.480469 52.132812 44.996094 C 52.535156 44.515625 52.6875 43.871094 52.542969 43.257812 C 52.386719 42.597656 52.304688 41.914062 52.304688 41.195312 C 52.304688 36.160156 56.347656 32.117188 61.386719 32.117188 Z M 61.386719 32.117188 "/>
</g>
</svg>
